<svg width="181" height="42" viewBox="0 0 181 42" fill="none" xmlns="http://www.w3.org/2000/svg">
<path d="M3.384 35C3 35 2.664 34.888 2.376 34.664C2.088 34.424 1.944 34.128 1.944 33.776V19.424C1.944 19.072 2.064 18.784 2.304 18.56C2.544 18.32 2.832 18.2 3.168 18.2H9.936C10.8 18.2 11.592 18.416 12.312 18.848C13.032 19.264 13.608 19.848 14.04 20.6C14.488 21.336 14.712 22.184 14.712 23.144C14.712 23.784 14.584 24.4 14.328 24.992C14.072 25.568 13.728 26.08 13.296 26.528C12.864 26.976 12.376 27.312 11.832 27.536L11.568 27.08C12.064 27.256 12.496 27.512 12.864 27.848C13.232 28.168 13.52 28.552 13.728 29C13.952 29.432 14.072 29.928 14.088 30.488C14.136 30.984 14.176 31.4 14.208 31.736C14.256 32.056 14.32 32.32 14.4 32.528C14.48 32.736 14.624 32.896 14.832 33.008C15.12 33.168 15.296 33.408 15.36 33.728C15.44 34.048 15.376 34.336 15.168 34.592C15.024 34.784 14.84 34.912 14.616 34.976C14.408 35.024 14.192 35.032 13.968 35C13.744 34.952 13.552 34.888 13.392 34.808C13.136 34.648 12.872 34.424 12.6 34.136C12.344 33.832 12.136 33.416 11.976 32.888C11.816 32.36 11.736 31.664 11.736 30.8C11.736 30.4 11.672 30.056 11.544 29.768C11.416 29.48 11.24 29.248 11.016 29.072C10.792 28.88 10.528 28.744 10.224 28.664C9.92 28.568 9.584 28.52 9.216 28.52H4.128L4.464 28.04V33.776C4.464 34.128 4.368 34.424 4.176 34.664C3.984 34.888 3.72 35 3.384 35ZM4.152 26.432H9.888C10.256 26.416 10.608 26.272 10.944 26C11.296 25.712 11.576 25.328 11.784 24.848C12.008 24.368 12.12 23.824 12.12 23.216C12.12 22.448 11.888 21.808 11.424 21.296C10.976 20.768 10.44 20.504 9.816 20.504H4.2L4.464 19.88V26.936L4.152 26.432ZM28.4537 22.184C28.8057 22.184 29.0937 22.304 29.3177 22.544C29.5417 22.768 29.6537 23.056 29.6537 23.408V33.776C29.6537 34.128 29.5417 34.424 29.3177 34.664C29.0937 34.888 28.8057 35 28.4537 35C28.1177 35 27.8297 34.888 27.5897 34.664C27.3657 34.424 27.2537 34.128 27.2537 33.776V32.048L27.7577 32.12C27.7577 32.408 27.6377 32.728 27.3977 33.08C27.1737 33.432 26.8617 33.776 26.4617 34.112C26.0617 34.432 25.5897 34.704 25.0457 34.928C24.5017 35.136 23.9177 35.24 23.2937 35.24C22.1897 35.24 21.1977 34.96 20.3177 34.4C19.4377 33.824 18.7417 33.04 18.2297 32.048C17.7177 31.056 17.4617 29.928 17.4617 28.664C17.4617 27.368 17.7177 26.232 18.2297 25.256C18.7417 24.264 19.4297 23.488 20.2937 22.928C21.1737 22.368 22.1497 22.088 23.2217 22.088C23.9097 22.088 24.5417 22.2 25.1177 22.424C25.7097 22.648 26.2217 22.936 26.6537 23.288C27.0857 23.64 27.4137 24.016 27.6377 24.416C27.8777 24.8 27.9977 25.168 27.9977 25.52L27.2537 25.592V23.408C27.2537 23.072 27.3657 22.784 27.5897 22.544C27.8297 22.304 28.1177 22.184 28.4537 22.184ZM23.5577 33.032C24.3097 33.032 24.9737 32.84 25.5497 32.456C26.1257 32.072 26.5737 31.552 26.8937 30.896C27.2137 30.224 27.3737 29.48 27.3737 28.664C27.3737 27.832 27.2137 27.088 26.8937 26.432C26.5737 25.776 26.1257 25.256 25.5497 24.872C24.9737 24.488 24.3097 24.296 23.5577 24.296C22.8217 24.296 22.1657 24.488 21.5897 24.872C21.0297 25.256 20.5817 25.776 20.2457 26.432C19.9257 27.088 19.7657 27.832 19.7657 28.664C19.7657 29.48 19.9257 30.224 20.2457 30.896C20.5817 31.552 21.0297 32.072 21.5897 32.456C22.1657 32.84 22.8217 33.032 23.5577 33.032ZM39.3759 22.16C40.4959 22.16 41.4879 22.44 42.3519 23C43.2319 23.56 43.9279 24.328 44.4399 25.304C44.9519 26.264 45.2079 27.384 45.2079 28.664C45.2079 29.944 44.9519 31.08 44.4399 32.072C43.9279 33.048 43.2399 33.816 42.3759 34.376C41.5119 34.936 40.5359 35.216 39.4479 35.216C38.8399 35.216 38.2639 35.12 37.7199 34.928C37.1759 34.736 36.6959 34.488 36.2799 34.184C35.8639 33.864 35.5199 33.528 35.2479 33.176C34.9919 32.824 34.8319 32.496 34.7679 32.192L35.4159 31.88V38.576C35.4159 38.928 35.2959 39.216 35.0559 39.44C34.8319 39.68 34.5519 39.8 34.2159 39.8C33.8639 39.8 33.5759 39.68 33.3519 39.44C33.1279 39.216 33.0159 38.928 33.0159 38.576V23.552C33.0159 23.216 33.1279 22.928 33.3519 22.688C33.5759 22.448 33.8639 22.328 34.2159 22.328C34.5519 22.328 34.8319 22.448 35.0559 22.688C35.2959 22.928 35.4159 23.216 35.4159 23.552V25.208L35.0319 24.992C35.0799 24.688 35.2319 24.376 35.4879 24.056C35.7439 23.72 36.0639 23.408 36.4479 23.12C36.8479 22.832 37.2959 22.6 37.7919 22.424C38.3039 22.248 38.8319 22.16 39.3759 22.16ZM39.1119 24.368C38.3439 24.368 37.6719 24.56 37.0959 24.944C36.5359 25.312 36.0959 25.816 35.7759 26.456C35.4559 27.096 35.2959 27.832 35.2959 28.664C35.2959 29.48 35.4559 30.224 35.7759 30.896C36.0959 31.552 36.5359 32.072 37.0959 32.456C37.6719 32.824 38.3439 33.008 39.1119 33.008C39.8639 33.008 40.5199 32.824 41.0799 32.456C41.6399 32.072 42.0799 31.552 42.3999 30.896C42.7359 30.224 42.9039 29.48 42.9039 28.664C42.9039 27.848 42.7359 27.12 42.3999 26.48C42.0799 25.824 41.6399 25.312 41.0799 24.944C40.5199 24.56 39.8639 24.368 39.1119 24.368ZM54.2822 22.16C55.3862 22.16 56.2422 22.4 56.8502 22.88C57.4582 23.344 57.8822 23.976 58.1222 24.776C58.3782 25.576 58.5062 26.456 58.5062 27.416V33.776C58.5062 34.128 58.3862 34.424 58.1462 34.664C57.9222 34.888 57.6422 35 57.3062 35C56.9542 35 56.6662 34.888 56.4422 34.664C56.2182 34.424 56.1062 34.128 56.1062 33.776V27.416C56.1062 26.856 56.0262 26.344 55.8662 25.88C55.7222 25.416 55.4582 25.048 55.0742 24.776C54.7062 24.504 54.1862 24.368 53.5142 24.368C52.8902 24.368 52.3302 24.504 51.8342 24.776C51.3542 25.048 50.9782 25.416 50.7062 25.88C50.4502 26.344 50.3222 26.856 50.3222 27.416V33.776C50.3222 34.128 50.2022 34.424 49.9622 34.664C49.7382 34.888 49.4582 35 49.1222 35C48.7702 35 48.4822 34.888 48.2582 34.664C48.0342 34.424 47.9222 34.128 47.9222 33.776V18.464C47.9222 18.112 48.0342 17.824 48.2582 17.6C48.4822 17.36 48.7702 17.24 49.1222 17.24C49.4582 17.24 49.7382 17.36 49.9622 17.6C50.2022 17.824 50.3222 18.112 50.3222 18.464V25.016L49.8902 25.256C50.0022 24.904 50.1862 24.544 50.4422 24.176C50.7142 23.808 51.0422 23.472 51.4262 23.168C51.8262 22.864 52.2662 22.624 52.7462 22.448C53.2262 22.256 53.7382 22.16 54.2822 22.16ZM67.7241 35.24C66.3961 35.24 65.2441 34.968 64.2681 34.424C63.2921 33.864 62.5321 33.104 61.9881 32.144C61.4601 31.168 61.1961 30.056 61.1961 28.808C61.1961 27.4 61.4761 26.2 62.0361 25.208C62.6121 24.2 63.3561 23.432 64.2681 22.904C65.1801 22.36 66.1481 22.088 67.1721 22.088C67.9561 22.088 68.7001 22.248 69.4041 22.568C70.1081 22.872 70.7321 23.304 71.2761 23.864C71.8361 24.408 72.2761 25.056 72.5961 25.808C72.9161 26.544 73.0841 27.352 73.1001 28.232C73.0841 28.552 72.9561 28.816 72.7161 29.024C72.4761 29.232 72.1961 29.336 71.8761 29.336H62.5401L61.9641 27.296H70.9881L70.5321 27.728V27.128C70.5001 26.568 70.3161 26.08 69.9801 25.664C69.6441 25.232 69.2281 24.904 68.7321 24.68C68.2361 24.44 67.7161 24.32 67.1721 24.32C66.6921 24.32 66.2281 24.4 65.7801 24.56C65.3481 24.704 64.9561 24.944 64.6041 25.28C64.2681 25.616 63.9961 26.064 63.7881 26.624C63.5961 27.168 63.5001 27.848 63.5001 28.664C63.5001 29.544 63.6841 30.312 64.0521 30.968C64.4201 31.624 64.9161 32.136 65.5401 32.504C66.1641 32.856 66.8521 33.032 67.6041 33.032C68.1961 33.032 68.6841 32.976 69.0681 32.864C69.4521 32.736 69.7721 32.584 70.0281 32.408C70.2841 32.232 70.5081 32.064 70.7001 31.904C70.9401 31.76 71.1801 31.688 71.4201 31.688C71.7081 31.688 71.9481 31.792 72.1401 32C72.3321 32.192 72.4281 32.424 72.4281 32.696C72.4281 33.048 72.2521 33.368 71.9001 33.656C71.4681 34.072 70.8681 34.44 70.1001 34.76C69.3481 35.08 68.5561 35.24 67.7241 35.24ZM78.4048 33.776C78.4048 34.128 78.2848 34.424 78.0448 34.664C77.8208 34.888 77.5408 35 77.2048 35C76.8688 35 76.5808 34.888 76.3408 34.664C76.1168 34.424 76.0048 34.128 76.0048 33.776V18.464C76.0048 18.112 76.1248 17.824 76.3648 17.6C76.6048 17.36 76.8928 17.24 77.2288 17.24C77.5808 17.24 77.8608 17.36 78.0688 17.6C78.2928 17.824 78.4048 18.112 78.4048 18.464V33.776ZM96.2886 18.2C97.7606 18.2 98.8726 18.56 99.6246 19.28C100.393 20 100.777 21.048 100.777 22.424C100.777 23.144 100.601 23.8 100.249 24.392C99.9126 24.968 99.4086 25.424 98.7366 25.76C98.0806 26.096 97.2566 26.272 96.2646 26.288L96.3126 25.4C96.8406 25.4 97.4086 25.472 98.0166 25.616C98.6406 25.76 99.2246 26.008 99.7686 26.36C100.313 26.712 100.761 27.192 101.113 27.8C101.465 28.392 101.641 29.136 101.641 30.032C101.641 31.008 101.481 31.824 101.161 32.48C100.841 33.12 100.417 33.624 99.8886 33.992C99.3606 34.36 98.7766 34.624 98.1366 34.784C97.5126 34.928 96.8966 35 96.2886 35H90.1446C89.8086 35 89.5206 34.888 89.2806 34.664C89.0406 34.424 88.9206 34.128 88.9206 33.776V19.424C88.9206 19.072 89.0406 18.784 89.2806 18.56C89.5206 18.32 89.8086 18.2 90.1446 18.2H96.2886ZM95.9526 20.552H91.2246L91.5126 20.168V25.328L91.2486 25.064H96.0006C96.5766 25.048 97.0806 24.856 97.5126 24.488C97.9606 24.104 98.1846 23.544 98.1846 22.808C98.1846 22.056 97.9846 21.496 97.5846 21.128C97.1846 20.744 96.6406 20.552 95.9526 20.552ZM96.1206 27.416H91.3446L91.5126 27.248V32.912L91.3206 32.696H96.2646C97.0966 32.696 97.7686 32.48 98.2806 32.048C98.7926 31.6 99.0486 30.928 99.0486 30.032C99.0486 29.28 98.8966 28.72 98.5926 28.352C98.2886 27.984 97.9126 27.736 97.4646 27.608C97.0166 27.48 96.5686 27.416 96.1206 27.416ZM105.56 35C105.208 35 104.92 34.888 104.696 34.664C104.472 34.424 104.36 34.128 104.36 33.776V23.6C104.36 23.248 104.472 22.96 104.696 22.736C104.92 22.496 105.208 22.376 105.56 22.376C105.896 22.376 106.176 22.496 106.4 22.736C106.64 22.96 106.76 23.248 106.76 23.6V26.288L106.52 25.256C106.648 24.808 106.84 24.392 107.096 24.008C107.368 23.624 107.688 23.288 108.056 23C108.424 22.712 108.832 22.488 109.28 22.328C109.744 22.168 110.224 22.088 110.72 22.088C111.136 22.088 111.496 22.2 111.8 22.424C112.104 22.648 112.256 22.928 112.256 23.264C112.256 23.696 112.144 24.016 111.92 24.224C111.696 24.416 111.448 24.512 111.176 24.512C110.936 24.512 110.704 24.464 110.48 24.368C110.256 24.256 109.992 24.2 109.688 24.2C109.352 24.2 109.008 24.288 108.656 24.464C108.304 24.64 107.984 24.904 107.696 25.256C107.408 25.592 107.176 25.992 107 26.456C106.84 26.92 106.76 27.44 106.76 28.016V33.776C106.76 34.128 106.64 34.424 106.4 34.664C106.176 34.888 105.896 35 105.56 35ZM123.799 22.376C124.135 22.376 124.415 22.496 124.639 22.736C124.879 22.96 124.999 23.248 124.999 23.6V29.912C124.999 31.576 124.535 32.88 123.607 33.824C122.679 34.752 121.367 35.216 119.671 35.216C117.991 35.216 116.687 34.752 115.759 33.824C114.847 32.88 114.391 31.576 114.391 29.912V23.6C114.391 23.248 114.503 22.96 114.727 22.736C114.951 22.496 115.239 22.376 115.591 22.376C115.927 22.376 116.207 22.496 116.431 22.736C116.671 22.96 116.791 23.248 116.791 23.6V29.912C116.791 30.952 117.031 31.728 117.511 32.24C118.007 32.752 118.727 33.008 119.671 33.008C120.631 33.008 121.359 32.752 121.855 32.24C122.351 31.728 122.599 30.952 122.599 29.912V23.6C122.599 23.248 122.711 22.96 122.935 22.736C123.159 22.496 123.447 22.376 123.799 22.376ZM127.592 33.032C127.448 32.808 127.384 32.552 127.4 32.264C127.416 31.96 127.584 31.704 127.904 31.496C128.128 31.352 128.36 31.296 128.6 31.328C128.856 31.344 129.096 31.464 129.32 31.688C129.768 32.184 130.264 32.576 130.808 32.864C131.368 33.152 132.04 33.296 132.824 33.296C133.144 33.28 133.472 33.232 133.808 33.152C134.144 33.056 134.432 32.896 134.672 32.672C134.912 32.432 135.032 32.088 135.032 31.64C135.032 31.24 134.904 30.92 134.648 30.68C134.392 30.44 134.056 30.248 133.64 30.104C133.224 29.944 132.776 29.8 132.296 29.672C131.784 29.528 131.264 29.368 130.736 29.192C130.224 29.016 129.76 28.792 129.344 28.52C128.928 28.232 128.584 27.864 128.312 27.416C128.056 26.968 127.928 26.416 127.928 25.76C127.928 25.008 128.136 24.36 128.552 23.816C128.984 23.272 129.536 22.848 130.208 22.544C130.896 22.24 131.64 22.088 132.44 22.088C132.904 22.088 133.392 22.152 133.904 22.28C134.416 22.392 134.912 22.576 135.392 22.832C135.872 23.088 136.288 23.424 136.64 23.84C136.8 24.048 136.888 24.296 136.904 24.584C136.936 24.872 136.808 25.128 136.52 25.352C136.328 25.512 136.096 25.584 135.824 25.568C135.552 25.552 135.328 25.464 135.152 25.304C134.848 24.92 134.456 24.624 133.976 24.416C133.496 24.192 132.952 24.08 132.344 24.08C132.04 24.08 131.72 24.128 131.384 24.224C131.064 24.304 130.792 24.456 130.568 24.68C130.344 24.904 130.232 25.232 130.232 25.664C130.232 26.064 130.36 26.384 130.616 26.624C130.888 26.864 131.24 27.064 131.672 27.224C132.104 27.384 132.576 27.528 133.088 27.656C133.584 27.784 134.072 27.936 134.552 28.112C135.048 28.288 135.488 28.52 135.872 28.808C136.272 29.08 136.592 29.44 136.832 29.888C137.088 30.32 137.216 30.872 137.216 31.544C137.216 32.328 136.984 33 136.52 33.56C136.072 34.104 135.496 34.52 134.792 34.808C134.104 35.096 133.376 35.24 132.608 35.24C131.696 35.24 130.784 35.08 129.872 34.76C128.976 34.424 128.216 33.848 127.592 33.032ZM150.141 22.328C150.493 22.328 150.781 22.448 151.005 22.688C151.229 22.912 151.341 23.2 151.341 23.552V38.576C151.341 38.928 151.229 39.216 151.005 39.44C150.781 39.68 150.493 39.8 150.141 39.8C149.805 39.8 149.517 39.68 149.277 39.44C149.053 39.216 148.941 38.928 148.941 38.576V32.048L149.445 32.072C149.445 32.36 149.325 32.688 149.085 33.056C148.861 33.408 148.549 33.752 148.149 34.088C147.749 34.424 147.277 34.704 146.733 34.928C146.189 35.136 145.605 35.24 144.981 35.24C143.877 35.24 142.885 34.96 142.005 34.4C141.125 33.824 140.429 33.048 139.917 32.072C139.405 31.08 139.149 29.944 139.149 28.664C139.149 27.384 139.405 26.256 139.917 25.28C140.429 24.288 141.117 23.512 141.981 22.952C142.861 22.376 143.837 22.088 144.909 22.088C145.581 22.088 146.205 22.2 146.781 22.424C147.373 22.648 147.885 22.936 148.317 23.288C148.749 23.64 149.085 24.016 149.325 24.416C149.565 24.8 149.685 25.168 149.685 25.52L148.941 25.592V23.552C148.941 23.216 149.053 22.928 149.277 22.688C149.517 22.448 149.805 22.328 150.141 22.328ZM145.245 33.032C146.013 33.032 146.677 32.84 147.237 32.456C147.813 32.072 148.261 31.552 148.581 30.896C148.901 30.24 149.061 29.496 149.061 28.664C149.061 27.832 148.901 27.088 148.581 26.432C148.261 25.776 147.813 25.256 147.237 24.872C146.661 24.488 145.997 24.296 145.245 24.296C144.509 24.296 143.853 24.488 143.277 24.872C142.717 25.256 142.269 25.776 141.933 26.432C141.613 27.088 141.453 27.832 141.453 28.664C141.453 29.496 141.613 30.24 141.933 30.896C142.269 31.552 142.717 32.072 143.277 32.456C143.853 32.84 144.509 33.032 145.245 33.032ZM164.111 22.376C164.447 22.376 164.727 22.496 164.951 22.736C165.191 22.96 165.311 23.248 165.311 23.6V29.912C165.311 31.576 164.847 32.88 163.919 33.824C162.991 34.752 161.679 35.216 159.983 35.216C158.303 35.216 156.999 34.752 156.071 33.824C155.159 32.88 154.703 31.576 154.703 29.912V23.6C154.703 23.248 154.815 22.96 155.039 22.736C155.263 22.496 155.551 22.376 155.903 22.376C156.239 22.376 156.519 22.496 156.743 22.736C156.983 22.96 157.103 23.248 157.103 23.6V29.912C157.103 30.952 157.343 31.728 157.823 32.24C158.319 32.752 159.039 33.008 159.983 33.008C160.943 33.008 161.671 32.752 162.167 32.24C162.663 31.728 162.911 30.952 162.911 29.912V23.6C162.911 23.248 163.023 22.96 163.247 22.736C163.471 22.496 163.759 22.376 164.111 22.376ZM174.529 35.24C173.201 35.24 172.049 34.968 171.073 34.424C170.097 33.864 169.337 33.104 168.793 32.144C168.265 31.168 168.001 30.056 168.001 28.808C168.001 27.4 168.281 26.2 168.841 25.208C169.417 24.2 170.161 23.432 171.073 22.904C171.985 22.36 172.953 22.088 173.977 22.088C174.761 22.088 175.505 22.248 176.209 22.568C176.913 22.872 177.537 23.304 178.081 23.864C178.641 24.408 179.081 25.056 179.401 25.808C179.721 26.544 179.889 27.352 179.905 28.232C179.889 28.552 179.761 28.816 179.521 29.024C179.281 29.232 179.001 29.336 178.681 29.336H169.345L168.769 27.296H177.793L177.337 27.728V27.128C177.305 26.568 177.121 26.08 176.785 25.664C176.449 25.232 176.033 24.904 175.537 24.68C175.041 24.44 174.521 24.32 173.977 24.32C173.497 24.32 173.033 24.4 172.585 24.56C172.153 24.704 171.761 24.944 171.409 25.28C171.073 25.616 170.801 26.064 170.593 26.624C170.401 27.168 170.305 27.848 170.305 28.664C170.305 29.544 170.489 30.312 170.857 30.968C171.225 31.624 171.721 32.136 172.345 32.504C172.969 32.856 173.657 33.032 174.409 33.032C175.001 33.032 175.489 32.976 175.873 32.864C176.257 32.736 176.577 32.584 176.833 32.408C177.089 32.232 177.313 32.064 177.505 31.904C177.745 31.76 177.985 31.688 178.225 31.688C178.513 31.688 178.753 31.792 178.945 32C179.137 32.192 179.233 32.424 179.233 32.696C179.233 33.048 179.057 33.368 178.705 33.656C178.273 34.072 177.673 34.44 176.905 34.76C176.153 35.08 175.361 35.24 174.529 35.24Z" fill="#056CF2"/>
<path d="M2.048 4.8H7.744C7.92533 4.8 8.08 4.85867 8.208 4.976C8.336 5.09333 8.4 5.24267 8.4 5.424C8.4 5.60533 8.336 5.75467 8.208 5.872C8.08 5.97867 7.92533 6.032 7.744 6.032H2.592L2.736 5.76V9.808L2.576 9.632H7.024C7.20533 9.632 7.36 9.69067 7.488 9.808C7.616 9.92533 7.68 10.0747 7.68 10.256C7.68 10.4373 7.616 10.5867 7.488 10.704C7.36 10.8107 7.20533 10.864 7.024 10.864H2.624L2.736 10.72V14.864L2.64 14.752H7.744C7.92533 14.752 8.08 14.816 8.208 14.944C8.336 15.072 8.4 15.216 8.4 15.376C8.4 15.5573 8.336 15.7067 8.208 15.824C8.08 15.9413 7.92533 16 7.744 16H2.048C1.86667 16 1.712 15.936 1.584 15.808C1.46667 15.68 1.408 15.5253 1.408 15.344V5.44C1.408 5.25867 1.46667 5.10933 1.584 4.992C1.712 4.864 1.86667 4.8 2.048 4.8ZM10.693 15.984C10.469 15.984 10.293 15.92 10.165 15.792C10.0477 15.664 9.989 15.488 9.989 15.264V14.944C9.989 14.7093 10.0477 14.528 10.165 14.4C10.293 14.272 10.469 14.208 10.693 14.208H10.821C11.0557 14.208 11.2317 14.272 11.349 14.4C11.4663 14.528 11.525 14.7093 11.525 14.944V15.264C11.525 15.488 11.4663 15.664 11.349 15.792C11.2317 15.92 11.0557 15.984 10.821 15.984H10.693ZM14.4546 4.784C14.5506 4.784 14.652 4.81067 14.7586 4.864C14.876 4.91733 14.9666 4.98667 15.0306 5.072L19.2706 11.488L18.7106 11.472L22.9986 5.072C23.1373 4.86933 23.3186 4.77333 23.5426 4.784C23.7133 4.79467 23.8626 4.85867 23.9906 4.976C24.1186 5.09333 24.1826 5.248 24.1826 5.44V15.344C24.1826 15.5253 24.1186 15.68 23.9906 15.808C23.8626 15.936 23.7026 16 23.5106 16C23.3186 16 23.1586 15.936 23.0306 15.808C22.9026 15.68 22.8386 15.5253 22.8386 15.344V6.656L23.2386 6.736L19.4626 12.48C19.3986 12.5547 19.3186 12.6187 19.2226 12.672C19.1373 12.7253 19.0466 12.752 18.9506 12.752C18.8546 12.752 18.7586 12.7253 18.6626 12.672C18.5666 12.6187 18.4866 12.5547 18.4226 12.48L14.6946 6.736L15.0306 6.32V15.344C15.0306 15.5253 14.972 15.68 14.8546 15.808C14.7373 15.936 14.588 16 14.4066 16C14.2253 16 14.076 15.936 13.9586 15.808C13.852 15.68 13.7986 15.5253 13.7986 15.344V5.44C13.7986 5.26933 13.8573 5.12 13.9746 4.992C14.1026 4.85333 14.2626 4.784 14.4546 4.784ZM27.1461 15.984C26.9221 15.984 26.7461 15.92 26.6181 15.792C26.5008 15.664 26.4421 15.488 26.4421 15.264V14.944C26.4421 14.7093 26.5008 14.528 26.6181 14.4C26.7461 14.272 26.9221 14.208 27.1461 14.208H27.2741C27.5088 14.208 27.6848 14.272 27.8021 14.4C27.9195 14.528 27.9781 14.7093 27.9781 14.944V15.264C27.9781 15.488 27.9195 15.664 27.8021 15.792C27.6848 15.92 27.5088 15.984 27.2741 15.984H27.1461ZM30.8918 4.8H36.5878C36.7691 4.8 36.9238 4.85867 37.0518 4.976C37.1798 5.09333 37.2438 5.24267 37.2438 5.424C37.2438 5.60533 37.1798 5.75467 37.0518 5.872C36.9238 5.97867 36.7691 6.032 36.5878 6.032H31.4358L31.5798 5.76V9.808L31.4198 9.632H35.8678C36.0491 9.632 36.2038 9.69067 36.3318 9.808C36.4598 9.92533 36.5238 10.0747 36.5238 10.256C36.5238 10.4373 36.4598 10.5867 36.3318 10.704C36.2038 10.8107 36.0491 10.864 35.8678 10.864H31.4678L31.5798 10.72V14.864L31.4838 14.752H36.5878C36.7691 14.752 36.9238 14.816 37.0518 14.944C37.1798 15.072 37.2438 15.216 37.2438 15.376C37.2438 15.5573 37.1798 15.7067 37.0518 15.824C36.9238 15.9413 36.7691 16 36.5878 16H30.8918C30.7104 16 30.5558 15.936 30.4278 15.808C30.3104 15.68 30.2518 15.5253 30.2518 15.344V5.44C30.2518 5.25867 30.3104 5.10933 30.4278 4.992C30.5558 4.864 30.7104 4.8 30.8918 4.8ZM39.5368 15.984C39.3128 15.984 39.1368 15.92 39.0088 15.792C38.8914 15.664 38.8328 15.488 38.8328 15.264V14.944C38.8328 14.7093 38.8914 14.528 39.0088 14.4C39.1368 14.272 39.3128 14.208 39.5368 14.208H39.6648C39.8994 14.208 40.0754 14.272 40.1928 14.4C40.3101 14.528 40.3688 14.7093 40.3688 14.944V15.264C40.3688 15.488 40.3101 15.664 40.1928 15.792C40.0754 15.92 39.8994 15.984 39.6648 15.984H39.5368ZM43.2984 16C43.1064 16 42.9464 15.936 42.8184 15.808C42.701 15.68 42.6424 15.5253 42.6424 15.344V5.44C42.6424 5.25867 42.701 5.10933 42.8184 4.992C42.9464 4.864 43.101 4.8 43.2824 4.8H48.8984C49.0797 4.8 49.2344 4.85867 49.3624 4.976C49.4904 5.09333 49.5544 5.24267 49.5544 5.424C49.5544 5.59467 49.4904 5.73867 49.3624 5.856C49.2344 5.97333 49.0797 6.032 48.8984 6.032H43.8584L43.9544 5.904V9.824L43.8744 9.648H48.1784C48.3597 9.648 48.5144 9.712 48.6424 9.84C48.7704 9.95733 48.8344 10.1067 48.8344 10.288C48.8344 10.448 48.7704 10.592 48.6424 10.72C48.5144 10.8373 48.3597 10.896 48.1784 10.896H43.8424L43.9544 10.752V15.344C43.9544 15.5253 43.8904 15.68 43.7624 15.808C43.6344 15.936 43.4797 16 43.2984 16ZM51.8493 15.984C51.6253 15.984 51.4493 15.92 51.3213 15.792C51.2039 15.664 51.1453 15.488 51.1453 15.264V14.944C51.1453 14.7093 51.2039 14.528 51.3213 14.4C51.4493 14.272 51.6253 14.208 51.8493 14.208H51.9773C52.2119 14.208 52.3879 14.272 52.5053 14.4C52.6226 14.528 52.6813 14.7093 52.6813 14.944V15.264C52.6813 15.488 52.6226 15.664 52.5053 15.792C52.3879 15.92 52.2119 15.984 51.9773 15.984H51.8493ZM63.2331 6.464L59.4731 15.616C59.4305 15.744 59.3558 15.8453 59.2491 15.92C59.1425 15.9947 59.0305 16.032 58.9131 16.032C58.7105 16.032 58.5611 15.9787 58.4651 15.872C58.3691 15.7653 58.3211 15.6373 58.3211 15.488C58.3105 15.4133 58.3211 15.3333 58.3531 15.248L62.4971 5.168C62.5505 5.01867 62.6305 4.912 62.7371 4.848C62.8545 4.77333 62.9825 4.74133 63.1211 4.752C63.2598 4.752 63.3825 4.78933 63.4891 4.864C63.6065 4.93867 63.6865 5.04 63.7291 5.168L67.8571 15.152C67.8891 15.2373 67.9051 15.3227 67.9051 15.408C67.9051 15.6 67.8411 15.7547 67.7131 15.872C67.5851 15.9787 67.4411 16.032 67.2811 16.032C67.1531 16.032 67.0358 15.9947 66.9291 15.92C66.8225 15.8453 66.7425 15.7387 66.6891 15.6L62.8811 6.448L63.2331 6.464ZM60.2731 13.008L60.8171 11.76H65.5691L65.8091 13.008H60.2731ZM75.834 14.736C76.0153 14.736 76.17 14.8 76.298 14.928C76.426 15.0453 76.49 15.1947 76.49 15.376C76.49 15.5573 76.426 15.7067 76.298 15.824C76.17 15.9413 76.0153 16 75.834 16H70.298C70.1167 16 69.962 15.936 69.834 15.808C69.7167 15.68 69.658 15.5253 69.658 15.344V5.44C69.658 5.25867 69.722 5.10933 69.85 4.992C69.978 4.864 70.138 4.8 70.33 4.8C70.5113 4.8 70.666 4.864 70.794 4.992C70.922 5.10933 70.986 5.25867 70.986 5.44V15.024L70.666 14.736H75.834ZM78.9859 4.784C79.0819 4.784 79.1832 4.81067 79.2899 4.864C79.4072 4.91733 79.4979 4.98667 79.5619 5.072L83.8019 11.488L83.2419 11.472L87.5299 5.072C87.6685 4.86933 87.8499 4.77333 88.0739 4.784C88.2445 4.79467 88.3939 4.85867 88.5219 4.976C88.6499 5.09333 88.7139 5.248 88.7139 5.44V15.344C88.7139 15.5253 88.6499 15.68 88.5219 15.808C88.3939 15.936 88.2339 16 88.0419 16C87.8499 16 87.6899 15.936 87.5619 15.808C87.4339 15.68 87.3699 15.5253 87.3699 15.344V6.656L87.7699 6.736L83.9939 12.48C83.9299 12.5547 83.8499 12.6187 83.7539 12.672C83.6685 12.7253 83.5779 12.752 83.4819 12.752C83.3859 12.752 83.2899 12.7253 83.1939 12.672C83.0979 12.6187 83.0179 12.5547 82.9539 12.48L79.2259 6.736L79.5619 6.32V15.344C79.5619 15.5253 79.5032 15.68 79.3859 15.808C79.2685 15.936 79.1192 16 78.9379 16C78.7565 16 78.6072 15.936 78.4899 15.808C78.3832 15.68 78.3299 15.5253 78.3299 15.344V5.44C78.3299 5.26933 78.3885 5.12 78.5059 4.992C78.6339 4.85333 78.7939 4.784 78.9859 4.784ZM91.6774 15.984C91.4534 15.984 91.2774 15.92 91.1494 15.792C91.032 15.664 90.9734 15.488 90.9734 15.264V14.944C90.9734 14.7093 91.032 14.528 91.1494 14.4C91.2774 14.272 91.4534 14.208 91.6774 14.208H91.8054C92.04 14.208 92.216 14.272 92.3334 14.4C92.4507 14.528 92.5094 14.7093 92.5094 14.944V15.264C92.5094 15.488 92.4507 15.664 92.3334 15.792C92.216 15.92 92.04 15.984 91.8054 15.984H91.6774Z" fill="#056CF2"/>
</svg>
