<?xml version="1.0" standalone="no"?>
<!DOCTYPE svg PUBLIC "-//W3C//DTD SVG 20010904//EN"
 "http://www.w3.org/TR/2001/REC-SVG-20010904/DTD/svg10.dtd">
<svg version="1.0" xmlns="http://www.w3.org/2000/svg"
 width="700.000000pt" height="700.000000pt" viewBox="0 0 700.000000 700.000000"
 preserveAspectRatio="xMidYMid meet">
<metadata>
Created by potrace 1.14, written by Peter Selinger 2001-2017
</metadata>
<g transform="translate(0.000000,700.000000) scale(0.100000,-0.100000)"
fill="#000000" stroke="none">
<path d="M2880 5474 c-30 -7 -66 -15 -80 -18 -107 -20 -284 -86 -411 -153
-193 -101 -373 -268 -486 -448 -44 -70 -150 -302 -140 -306 1 0 105 -2 231 -4
219 -3 420 -10 646 -21 l106 -5 -1 133 c0 323 56 545 202 796 29 49 27 49 -67
26z"/>
<path d="M5190 4493 c-118 -46 -260 -101 -315 -122 -55 -21 -135 -52 -179 -69
-43 -16 -74 -32 -70 -35 8 -4 49 -15 89 -23 112 -22 486 -135 625 -189 47 -18
93 -35 104 -39 17 -6 18 -1 12 59 -17 185 -22 236 -32 362 -3 45 -9 94 -13
110 l-6 29 -215 -83z"/>
<path d="M6959 4391 c-13 -16 -53 -60 -89 -98 -36 -38 -121 -129 -190 -203
-262 -281 -317 -329 -440 -387 -100 -47 -153 -64 -250 -79 -126 -20 -329 2
-408 45 -12 6 -22 9 -22 7 0 -3 -30 10 -67 28 -174 87 -361 156 -643 240 -122
36 -535 129 -665 149 -26 4 -63 11 -185 31 -30 5 -163 26 -205 32 -16 2 -41 6
-55 9 -14 2 -50 7 -80 10 -30 3 -91 10 -135 15 -44 6 -93 12 -110 14 -16 2
-66 7 -110 11 -44 4 -93 8 -110 10 -16 2 -68 7 -115 10 -47 4 -101 8 -120 10
-19 2 -84 6 -145 10 -60 3 -135 8 -165 10 -257 17 -969 25 -1095 11 -374 -39
-717 -157 -995 -341 -125 -82 -147 -100 -265 -219 -202 -203 -297 -404 -290
-611 3 -104 22 -163 77 -252 146 -233 547 -420 1045 -488 23 -3 57 -8 75 -10
18 -3 62 -7 98 -10 36 -3 74 -8 86 -10 26 -6 47 16 107 110 136 213 188 433
183 781 -2 100 -6 186 -9 191 -8 13 -21 120 -20 160 3 76 69 129 150 120 72
-8 117 -64 129 -161 2 -24 7 -55 9 -67 11 -52 18 -180 18 -294 1 -111 -10
-292 -18 -305 -1 -3 -6 -25 -9 -50 -18 -128 -92 -341 -158 -454 l-29 -49 363
7 c200 4 386 9 413 10 28 2 109 7 180 11 144 8 167 9 305 20 52 4 111 9 130
10 53 4 182 16 210 20 14 2 54 6 90 10 75 7 131 13 180 21 19 2 49 6 66 8 33
4 174 25 213 31 13 2 45 7 70 11 42 5 230 37 291 49 99 19 280 58 305 65 17 5
42 11 56 14 57 9 308 80 465 130 327 104 432 122 734 120 202 -1 290 -19 425
-84 136 -65 180 -104 455 -400 18 -19 83 -88 144 -153 61 -65 123 -133 138
-149 20 -23 26 -26 23 -12 -2 10 -15 71 -29 134 -14 63 -27 126 -29 140 -3 14
-14 75 -25 135 -11 61 -24 130 -27 155 -4 25 -9 52 -10 60 -2 9 -6 43 -10 75
-4 33 -9 69 -11 80 -12 67 -19 209 -19 405 0 222 3 261 30 480 9 74 34 230 50
310 8 41 16 86 19 100 11 62 58 276 62 282 13 21 -16 4 -37 -21z m-6132 -842
c41 -13 80 -59 89 -104 15 -81 -48 -158 -130 -158 -107 0 -171 101 -123 194
33 64 96 90 164 68z"/>
<path d="M5370 2519 c-41 -10 -136 -39 -210 -63 -140 -46 -487 -142 -552 -152
-21 -4 -38 -10 -38 -14 0 -4 147 -56 328 -114 180 -59 367 -121 415 -138 48
-17 90 -28 93 -26 8 9 12 41 30 243 2 22 5 63 8 90 14 130 17 195 9 194 -4 0
-42 -9 -83 -20z"/>
<path d="M1552 2033 c-8 -3 2 -22 29 -56 166 -211 351 -336 631 -428 66 -22
123 -37 126 -35 2 3 -7 43 -21 88 -42 139 -61 231 -72 357 -3 35 -7 67 -10 70
-2 4 -21 5 -42 4 -67 -4 -614 -4 -621 0 -4 3 -13 2 -20 0z"/>
</g>
</svg>
